<svg width="320" height="36" xmlns="http://www.w3.org/2000/svg"><defs><mask fill="#fff" id="a"><path d="M0 32.21V3.79C0 1.666 1.286 0 2.922 0h314.156C318.714 0 320 1.667 320 3.79v17.407C320 23.32 304.02 36 302.383 36H2.923C1.285 36 0 34.333 0 32.21z" fill-rule="evenodd"/></mask></defs><path d="M0 32.21V3.79C0 1.666 1.286 0 2.922 0h314.156C318.714 0 320 1.667 320 3.79v17.407C320 23.32 304.02 36 302.383 36H2.923C1.285 36 0 34.333 0 32.21z" fill="#151e23"/><path d="M0 32.21V3.79C0 1.666 1.286 0 2.922 0h314.156C318.714 0 320 1.667 320 3.79v17.407C320 23.32 304.02 36 302.383 36H2.923C1.285 36 0 34.333 0 32.21z" stroke-width="4" stroke="#0f3a4f" fill="none" mask="url(#a)"/></svg>