<svg width="56" height="45" xmlns="http://www.w3.org/2000/svg"><path d="M47.95 25.71a.815.815 0 01.05.21v16.835a2.244 2.244 0 01-.674 1.579c-.44.444-.96.666-1.561.666H32V31.532h-8V45H10.235c-.601 0-1.121-.222-1.56-.666-.44-.445-.66-.97-.675-1.579V25.92c.015-.024.02-.059.032-.106a.484.484 0 00.018-.105L28 9.084 47.95 25.71zm8.015-3.035a1.15 1.15 0 01-.243.825l-2.15 2.595a1.18 1.18 0 01-.73.386h-.103c-.301 0-.544-.082-.73-.246L28 5.998 3.99 26.235c-.277.187-.555.27-.833.246a1.177 1.177 0 01-.728-.386L.278 23.5a1.146 1.146 0 01-.243-.825c.023-.315.15-.567.381-.754L25.363.911C26.103.305 26.983 0 28 0c1.018 0 1.897.304 2.637.912l8.466 7.155v-6.84c0-.327.104-.596.312-.806.208-.21.474-.316.798-.316h6.662c.324 0 .59.105.798.316.208.21.312.48.327.807v14.31l7.584 6.383c.231.187.358.439.381.754z" fill="#2c9c92"/></svg>